<?xml version="1.0" ?>
<svg version="1.1" id="user" width="1em" height="1em" viewBox="0 0 24 24" xmlns="http://www.w3.org/2000/svg" fill="currentColor">
	<path d="M21.75 0H5.25A2.25 2.25 0 0 0 3 2.25v5.76h-.763a2.25 2.25 0 0 0-2.25 2.25v11.5a2.25 2.25 0 0 0 2.25 2.25h16.5a2.25 2.25 0 0 0 2.25-2.25V16h.763A2.25 2.25 0 0 0 24 13.75V2.25A2.25 2.25 0 0 0 21.75 0zm-2.263 21.76a.75.75 0 0 1-.75.75h-16.5a.75.75 0 0 1-.75-.75v-11.5a.75.75 0 0 1 .75-.75h16.5a.75.75 0 0 1 .75.75v11.5zm3.013-8.01a.75.75 0 0 1-.75.75h-.763v-4.24a2.25 2.25 0 0 0-2.25-2.25H4.5V6h18v7.75zm0-10.25h-18V2.25a.75.75 0 0 1 .75-.75h16.5a.75.75 0 0 1 .75.75V3.5z"></path>
	<path d="M11.828 12.788a8.721 8.721 0 0 0-2.901-1.08 3.037 3.037 0 0 0-.465-.043c-.3-.016-.6.055-.944.243-.384.268-.663.665-.768 1.061a8.692 8.692 0 0 0-.513 3.035 8.569 8.569 0 0 0 .495 2.989c.123.453.402.85.866 1.166.245.13.52.197.773.197.19 0 .366-.013.562-.045a8.708 8.708 0 0 0 2.884-1.074 8.6 8.6 0 0 0 2.341-1.923 2 2 0 0 0 .576-1.24.71.71 0 0 0 0-.129c-.04-.468-.245-.908-.535-1.196a8.738 8.738 0 0 0-2.371-1.961zm1.227 3.512a7.26 7.26 0 0 1-1.991 1.64c-.743.44-1.55.74-2.387.893-.08.013-.162.02-.275.022h-.018c-.023.001-.04 0-.023.015a.581.581 0 0 1-.2-.326A7.25 7.25 0 0 1 7.738 16a7.364 7.364 0 0 1 .442-2.581.727.727 0 0 1 .118-.233.208.208 0 0 1 .105-.022c.085.009.181.007.263.021.85.154 1.656.454 2.416.904a7.384 7.384 0 0 1 2.015 1.674.504.504 0 0 1 .134.247.614.614 0 0 1-.175.29z"></path>
</svg>
