<?xml version="1.0" ?>
<svg version="1.1" id="user" width="1em" height="1em" viewBox="0 0 24 24" xmlns="http://www.w3.org/2000/svg">
    <path d="M12 0C5.373 0 0 5.373 0 12s5.373 12 12 12c6.624-.008 11.992-5.376 12-12 0-6.627-5.373-12-12-12zm0 22.5C6.201 22.5 1.5 17.8 1.5 12S6.201 1.5 12 1.5c5.796.007 10.493 4.704 10.5 10.5 0 5.799-4.701 10.5-10.5 10.5z"></path>
    <circle cx="12" cy="18.4" r="1.1"></circle>
    <path d="M12 4.5a4.125 4.125 0 0 0-4.125 4.125.75.75 0 0 0 1.5 0A2.625 2.625 0 1 1 12 11.25a.75.75 0 0 0-.75.75v3a.75.75 0 1 0 1.5 0v-2.319A4.125 4.125 0 0 0 12 4.5z"></path>
</svg>

