<?xml version="1.0" ?>
<svg version="1.1" id="user" width="1em" height="1em" viewBox="0 0 24 24" xmlns="http://www.w3.org/2000/svg">
    <path d="M21.747 2.987H2.254A2.256 2.256 0 0 0 0 5.241v13.518a2.256 2.256 0 0 0 2.254 2.254h19.493A2.256 2.256 0 0 0 24 18.759V5.241a2.256 2.256 0 0 0-2.253-2.254zm.751 15.772c0 .415-.336.75-.75.752H2.253a.753.753 0 0 1-.751-.752V8.996h20.995v9.763zm0-12.767H1.503V5.24c0-.415.336-.75.75-.752h19.494c.415.001.75.337.751.752v.75z"></path>
    <path d="M15.755 16.506H20.262a.75.75 0 0 0 .75-.75v-4.508a.75.75 0 0 0-.75-.75h-4.507a.75.75 0 0 0-.751.751V15.756c0 .415.336.75.751.75zM16.506 12h3.004v3.004h-3.004V12z"></path>
</svg>