<?xml version="1.0" ?>
<svg version="1.1" id="user" width="1em" height="1em" viewBox="0 0 24 24" xmlns="http://www.w3.org/2000/svg">
    <path d="M21 1.5h-2.25V.75a.75.75 0 0 0-1.5 0v.75H6.75V.75a.75.75 0 0 0-1.5 0v.75H3a3.003 3.003 0 0 0-3 3V21a3.003 3.003 0 0 0 3 3h18a3.004 3.004 0 0 0 3-3V4.5a3.004 3.004 0 0 0-3-3zM3 3h2.25v.75a.75.75 0 1 0 1.5 0V3h10.5v.75a.75.75 0 1 0 1.5 0V3H21c.828 0 1.5.672 1.5 1.5v3h-21v-3C1.5 3.672 2.172 3 3 3zm18 19.5H3c-.828 0-1.5-.672-1.5-1.5V9h21v12c0 .828-.672 1.5-1.5 1.5z"></path>
    <path d="M11.344 11.672c-1.472 0-2.625 1.72-2.625 3.914S9.872 19.5 11.344 19.5s2.625-1.72 2.625-3.914-1.153-3.914-2.625-3.914zm0 6.328c-.459 0-1.125-.94-1.125-2.414s.666-2.414 1.125-2.414 1.125.94 1.125 2.414c0 1.474-.667 2.414-1.125 2.414zM17.906 11.672c-1.472 0-2.625 1.72-2.625 3.914s1.153 3.914 2.625 3.914c1.473 0 2.625-1.72 2.625-3.914s-1.153-3.914-2.625-3.914zm0 6.328c-.458 0-1.125-.94-1.125-2.414s.667-2.414 1.125-2.414 1.125.94 1.125 2.414c0 1.474-.666 2.414-1.125 2.414zM5.625 12 3.75 13.5a.75.75 0 1 0 .938 1.172l.656-.526v4.44a.75.75 0 1 0 1.5 0v-6A.75.75 0 0 0 5.625 12z"></path>
</svg>